PathFileType	4	(X/Y/Z)	/Users/itak/Documents/Research/Walk-IL/dataset/trc/00385_00012.trc
DataRate	CameraRate	NumFrames	NumMarkers	Units	OrigDataRate	OrigDataStartFrame	OrigNumFrames
100.000000	100.000000	4	55	mm	100.000000	0	600
Frame#	Time	RPSI			LPSI			L3			STRN			T10			C7			CLAV			RBAK			LBAK			LSHO			LUPA			LAEL			LAOL			LWTS			LWPS			LFRA			LIFD			LHPS			LHTS			RSHO			RUPA			RAEL			RAOL			RWTS			RWPS			RFRA			RIFD			RHTS			RHPS			RBHD			LFHD			RFHD			RHIP			RASI			LKNE			LTHI			LANK			LTIP			LTOE			LMT1			LMT5			LHEE			RKNE			RANK			RTIP			RTOE			RMT1			RMT5			RHEE			LASI			LBHD			LHIP			RTHI			*53			*54			
		X1	Y1	Z1	X2	Y2	Z2	X3	Y3	Z3	X4	Y4	Z4	X5	Y5	Z5	X6	Y6	Z6	X7	Y7	Z7	X8	Y8	Z8	X9	Y9	Z9	X10	Y10	Z10	X11	Y11	Z11	X12	Y12	Z12	X13	Y13	Z13	X14	Y14	Z14	X15	Y15	Z15	X16	Y16	Z16	X17	Y17	Z17	X18	Y18	Z18	X19	Y19	Z19	X20	Y20	Z20	X21	Y21	Z21	X22	Y22	Z22	X23	Y23	Z23	X24	Y24	Z24	X25	Y25	Z25	X26	Y26	Z26	X27	Y27	Z27	X28	Y28	Z28	X29	Y29	Z29	X30	Y30	Z30	X31	Y31	Z31	X32	Y32	Z32	X33	Y33	Z33	X34	Y34	Z34	X35	Y35	Z35	X36	Y36	Z36	X37	Y37	Z37	X38	Y38	Z38	X39	Y39	Z39	X40	Y40	Z40	X41	Y41	Z41	X42	Y42	Z42	X43	Y43	Z43	X44	Y44	Z44	X45	Y45	Z45	X46	Y46	Z46	X47	Y47	Z47	X48	Y48	Z48	X49	Y49	Z49	X50	Y50	Z50	X51	Y51	Z51	X52	Y52	Z52	X53	Y53	Z53	X54	Y54	Z54	X55	Y55	Z55	

1	0	1014.879577636719	981.3176879882812	2.252876043319702	1011.615417480469	972.4630126953125	-128.9737396240234	1013.189758300781	1048.582153320312	-63.23313140869141	1249.089965820312	1205.65234375	-60.58008575439453	1004.505432128906	1152.100952148438	-68.52622222900391	1039.38671875	1401.606689453125	-84.97380828857422	1195.061401367188	1324.04052734375	-67.89197540283203	992.9312744140625	1257.722778320312	-16.36345481872559	1028.471801757812	1362.081665039062	-187.0157318115234	1119.0947265625	1374.275146484375	-233.7684326171875	1096.48681640625	1256.020629882812	-301.2988891601562	1117.704223632812	1057.647216796875	-317.8880310058594	1051.165161132812	1038.59765625	-265.1148071289062	1207.012084960938	851.4139404296875	-244.9204254150391	1170.082397460938	831.0941772460938	-315.9503479003906	1138.578002929688	953.4435424804688	-318.1629943847656	1212.220581054688	670.0952758789062	-236.1506805419922	1186.6669921875	747.7006225585938	-301.5641174316406	1233.0751953125	755.6219482421875	-257.16845703125	1088.678955078125	1384.833862304688	77.70378875732422	1071.859497070312	1321.21044921875	137.3573913574219	1071.889770507812	1061.801879882812	185.7918701171875	1053.84716796875	1046.851806640625	95.24266815185547	1201.9072265625	848.1884765625	162.6215209960938	1162.171142578125	838.7151489257812	224.5519866943359	1098.111450195312	996.8302001953125	204.1313629150391	1208.038818359375	676.0762939453125	174.197265625	1224.265625	746.3447265625	185.8721618652344	1169.645263671875	749.2936401367188	227.3722229003906	1060.216552734375	1589.683227539062	-19.59721946716309	1247.316040039062	1591.889404296875	-83.64335632324219	1186.216064453125	1598.108520507812	24.64551734924316	1098.531372070312	956.3041381835938	118.7449111938477	1227.674926757812	963.4266967773438	62.65238189697266	1120.498168945312	462.086669921875	-211.67529296875	1121.34228515625	604.6221923828125	-225.8579254150391	1020.629028320312	30.27609825134277	-159.6294097900391	1066.481323242188	232.7495880126953	-198.0960388183594	1233.81982421875	30.00153160095215	-91.70814514160156	1154.864868164062	33.21818542480469	-62.71633148193359	1149.1748046875	30.02817344665527	-167.7076110839844	982.6144409179688	28.34332656860352	-103.1293640136719	1121.070068359375	467.18359375	101.3475646972656	1069.03369140625	46.05864334106445	73.47025299072266	1127.737915039062	341.8953857421875	87.77886962890625	1246.7666015625	26.59992980957031	6.781017303466797	1170.70654296875	32.35790252685547	-20.23075485229492	1153.408935546875	36.45663833618164	77.76620483398438	992.6474609375	32.43941497802734	22.15521049499512	1211.86181640625	952.1234741210938	-199.3180694580078	1124.6123046875	1580.609497070312	-166.6968383789062	1100.265747070312	955.8331909179688	-240.1222686767578	1167.915893554688	728.9437866210938	122.0791854858398	nan	nan	nan	nan	nan	nan	
2	0.01	1014.946350097656	981.3583374023438	2.262224435806274	1011.625366210938	972.4535522460938	-128.9856109619141	1013.45458984375	1048.513305664062	-63.18425369262695	1249.134887695312	1205.657104492188	-60.5561408996582	1004.609008789062	1152.09912109375	-68.53367614746094	1039.42529296875	1401.592529296875	-85.01133728027344	1195.095458984375	1324.033935546875	-67.90129852294922	992.9002685546875	1257.74609375	-16.37815475463867	1028.53857421875	1362.068603515625	-187.0391387939453	1119.145629882812	1374.252197265625	-233.7922821044922	1096.552856445312	1255.9697265625	-301.3081970214844	1117.777954101562	1057.60888671875	-317.8740234375	1051.182373046875	1038.578491210938	-265.1072692871094	1207.042602539062	851.3325805664062	-244.8529357910156	1170.12060546875	831.0174560546875	-315.9306030273438	1138.678955078125	953.4052734375	-318.1427612304688	1212.309448242188	669.911865234375	-236.104736328125	1186.68115234375	747.6600952148438	-301.5354919433594	1233.107177734375	755.563232421875	-257.1430053710938	1088.692138671875	1384.838989257812	77.6492919921875	1071.881713867188	1321.236938476562	137.3297729492188	1071.964477539062	1061.838745117188	185.8355102539062	1053.91162109375	1046.848876953125	95.25408172607422	1201.943481445312	848.2236938476562	162.6799926757812	1162.230590820312	838.7512817382812	224.5974884033203	1098.156494140625	996.8677368164062	204.1755065917969	1208.041015625	676.0908813476562	174.2519226074219	1224.381713867188	746.4009399414062	185.9906768798828	1169.726928710938	749.33642578125	227.4509887695312	1060.136474609375	1589.787109375	-19.96335983276367	1247.358154296875	1591.825073242188	-83.62569427490234	1186.273803710938	1598.050048828125	24.62274742126465	1098.691650390625	956.3101806640625	118.8348541259766	1227.736694335938	963.4190063476562	62.67185974121094	1120.543212890625	462.083984375	-211.6642608642578	1121.373046875	604.6173706054688	-225.8524932861328	1020.620300292969	30.2680721282959	-159.6315612792969	1066.497924804688	232.7535705566406	-198.0948791503906	1233.839599609375	30.01177215576172	-91.71233367919922	1154.869750976562	33.21683120727539	-62.70687484741211	1149.177124023438	30.03415298461914	-167.7070007324219	982.6132202148438	28.34074592590332	-103.1285400390625	1121.069458007812	467.184326171875	101.3549270629883	1069.033569335938	46.05891036987305	73.46984100341797	1127.746704101562	341.8935546875	87.78314971923828	1246.819213867188	26.63333892822266	6.826469898223877	1170.70458984375	32.35710906982422	-20.22251510620117	1153.409545898438	36.44877243041992	77.77055358886719	992.6527709960938	32.43877029418945	22.15499496459961	1211.910278320312	952.0903930664062	-199.2691192626953	1124.7314453125	1580.591918945312	-166.76513671875	1100.384521484375	955.8152465820312	-240.1222534179688	1167.817504882812	729.0075073242188	122.1755447387695	nan	nan	nan	nan	nan	nan	
3	0.02	1015.102294921875	981.4058227539062	2.286577939987183	1011.668884277344	972.444091796875	-128.9949035644531	1013.633972167969	1048.4482421875	-63.16564559936523	1249.191162109375	1205.661254882812	-60.52931976318359	1004.75048828125	1152.097778320312	-68.54236602783203	1039.472778320312	1401.577514648438	-85.05705261230469	1195.139404296875	1324.025024414062	-67.91360473632812	992.8816528320312	1257.77099609375	-16.39559555053711	1028.616943359375	1362.053588867188	-187.0695190429688	1119.20947265625	1374.221801757812	-233.8235626220703	1096.632080078125	1255.907958984375	-301.3169250488281	1117.86474609375	1057.564086914062	-317.8557434082031	1051.213745117188	1038.559204101562	-265.0959167480469	1207.076904296875	851.2286987304688	-244.765380859375	1170.172973632812	830.9307861328125	-315.9096374511719	1138.799926757812	953.3571166992188	-318.1172790527344	1212.399536132812	669.8021850585938	-236.0852966308594	1186.701171875	747.6102294921875	-301.5001831054688	1233.145263671875	755.4991455078125	-257.1168518066406	1088.709106445312	1384.850708007812	77.58241271972656	1071.912231445312	1321.272094726562	137.2965698242188	1072.057373046875	1061.883666992188	185.8884429931641	1054.001953125	1046.84228515625	95.28488922119141	1201.99267578125	848.2653198242188	162.7517395019531	1162.301025390625	838.795654296875	224.6551208496094	1098.20849609375	996.9144897460938	204.2267303466797	1208.050048828125	676.1106567382812	174.3242340087891	1224.514038085938	746.4662475585938	186.1290283203125	1169.81787109375	749.3904418945312	227.5451202392578	1060.071533203125	1589.83544921875	-20.35930633544922	1247.413330078125	1591.745239257812	-83.60575103759766	1186.355712890625	1597.967895507812	24.60325622558594	1098.869262695312	956.3132934570312	118.9224166870117	1227.812255859375	963.4081420898438	62.69555282592773	1120.600219726562	462.0793151855469	-211.649169921875	1121.408813476562	604.6137084960938	-225.8446044921875	1020.612854003906	30.2612476348877	-159.6336975097656	1066.515869140625	232.7582244873047	-198.0929718017578	1233.848999023438	30.01066017150879	-91.70877075195312	1154.875244140625	33.21722412109375	-62.69747161865234	1149.178100585938	30.03764152526855	-167.70654296875	982.6130981445312	28.34041213989258	-103.1284866333008	1121.06982421875	467.1852416992188	101.3635101318359	1069.033447265625	46.05911254882812	73.46939086914062	1127.759643554688	341.8920593261719	87.78962707519531	1246.85986328125	26.65624237060547	6.861858367919922	1170.703247070312	32.35626602172852	-20.21482086181641	1153.410034179688	36.44080352783203	77.77505493164062	992.6588745117188	32.43784713745117	22.15500068664551	1211.9755859375	952.05615234375	-199.2160797119141	1124.877563476562	1580.571411132812	-166.8496704101562	1100.51904296875	955.7958984375	-240.1188507080078	1167.692138671875	729.0858154296875	122.2952880859375	nan	nan	nan	nan	nan	nan	
4	0.03	1015.339782714844	981.4548950195312	2.324671506881714	1011.743835449219	972.4361572265625	-129.0004272460938	1013.676025390625	1048.395874023438	-63.18837738037109	1249.256469726562	1205.663696289062	-60.50191879272461	1004.921936035156	1152.0966796875	-68.5513916015625	1039.526489257812	1401.56298828125	-85.10771179199219	1195.191650390625	1324.01416015625	-67.92864227294922	992.882080078125	1257.794555664062	-16.41431617736816	1028.701538085938	1362.037963867188	-187.1058959960938	1119.283325195312	1374.184936523438	-233.8611602783203	1096.719360351562	1255.839111328125	-301.3239440917969	1117.958251953125	1057.51611328125	-317.8334045410156	1051.2626953125	1038.542724609375	-265.0804138183594	1207.112182617188	851.1065673828125	-244.6608123779297	1170.238403320312	830.8411254882812	-315.8892517089844	1138.932861328125	953.3013305664062	-318.087890625	1212.487915039062	669.8129272460938	-236.1103973388672	1186.727172851562	747.5533447265625	-301.4596252441406	1233.18701171875	755.4352416992188	-257.0926208496094	1088.73046875	1384.871215820312	77.50822448730469	1071.95068359375	1321.31494140625	137.2602081298828	1072.16162109375	1061.93408203125	185.9465637207031	1054.116088867188	1046.833984375	95.33692169189453	1202.054565429688	848.3113403320312	162.8337860107422	1162.37744140625	838.84619140625	224.7233276367188	1098.263671875	996.9686279296875	204.2819366455078	1208.069091796875	676.1354370117188	174.4130249023438	1224.649536132812	746.535400390625	186.2770385742188	1169.91162109375	749.4537963867188	227.6497802734375	1060.034912109375	1589.803955078125	-20.74382209777832	1247.481567382812	1591.653076171875	-83.58558654785156	1186.462646484375	1597.865356445312	24.59016990661621	1099.041015625	956.3131103515625	118.9959411621094	1227.897094726562	963.39453125	62.72224807739258	1120.667358398438	462.0721740722656	-211.6299896240234	1121.446899414062	604.6114501953125	-225.8338012695312	1020.607666015625	30.25696182250977	-159.6353759765625	1066.534301757812	232.7637176513672	-198.0907592773438	1233.84619140625	29.99825859069824	-91.69744873046875	1154.880737304688	33.21928405761719	-62.68936157226562	1149.177734375	30.03857803344727	-167.7060699462891	982.6143798828125	28.34278106689453	-103.1293716430664	1121.071899414062	467.1861572265625	101.3726348876953	1069.033203125	46.05917739868164	73.468994140625	1127.776733398438	341.89111328125	87.79811096191406	1246.8876953125	26.6696662902832	6.885425090789795	1170.703125	32.35594940185547	-20.20942306518555	1153.410522460938	36.43301391601562	77.77964782714844	992.6651611328125	32.4366569519043	22.15533447265625	1212.057495117188	952.0254516601562	-199.1652984619141	1125.042602539062	1580.549438476562	-166.9462280273438	1100.655517578125	955.77783203125	-240.1120300292969	1167.543334960938	729.1753540039062	122.433479309082	nan	nan	nan	nan	nan	nan	
